<?xml version="1.0"?>
<svg xmlns="http://www.w3.org/2000/svg" viewBox="0 0 26 26" enable-background="new 0 0 26 26">
    <path style="text-indent:0;text-align:start;line-height:normal;text-transform:none;block-progression:tb;-inkscape-font-specification:Bitstream Vera Sans" d="M 2 0 C 1.4777778 0 0.93953051 0.18546949 0.5625 0.5625 C 0.18546949 0.93953051 0 1.4777778 0 2 L 0 14 C 0 14.522222 0.18546949 15.060469 0.5625 15.4375 C 0.93953051 15.814531 1.4777778 16 2 16 L 8.3125 16 L 8.3125 14 L 2 14 L 2 4 L 16 4 L 16 9 L 18 9 L 18 2 C 18 1.4777778 17.814531 0.93953051 17.4375 0.5625 C 17.060469 0.18546949 16.522222 0 16 0 L 2 0 z M 4 7 L 4 11 L 8 11 L 8 7 L 4 7 z M 10 7 L 10 9.40625 C 10 9.40625 10.3 9 11 9 L 14 9 L 14 7 L 10 7 z M 11 10 C 10.477778 10 9.9395305 10.185469 9.5625 10.5625 C 9.1854695 10.939531 9 11.477778 9 12 L 9 24 C 9 24.522222 9.1854695 25.060469 9.5625 25.4375 C 9.9395305 25.814531 10.477778 26 11 26 L 24 26 C 24.522222 26 25.060469 25.814531 25.4375 25.4375 C 25.814531 25.060469 26 24.522222 26 24 L 26 12 C 26 11.477778 25.814531 10.939531 25.4375 10.5625 C 25.060469 10.185469 24.522222 10 24 10 L 11 10 z M 11 12 L 24 12 L 24 14 L 11 14 L 11 12 z M 12 18 L 16 18 L 16 22 L 12 22 L 12 18 z M 19 18 L 23 18 L 23 22 L 19 22 L 19 18 z" overflow="visible" enable-background="accumulate" fill="white"/>
</svg>
